# xmcd
#
# Track frame offsets: 
#        150
#        21239
#        39616
#        66601
#        84803
#        106726
#        128530
#        144857
#        163573
#        187125
#        207069
#
# Disc length: 3128 seconds
#
# Revision: 0
# Processed by: cddbd v1.5.2PL0 Copyright (c) Steve Scherf et al.
# Submitted via: ExactAudioCopy v1.0b3
#
DISCID=8d0c360b
DTITLE=Stevie Jay - 2 Sides Of A Man
DYEAR=2008
DGENRE=Blues,Southern Soul,Gospel,WVOL
TTITLE0=Because of Me
TTITLE1=Gotta Find a Good Woman
TTITLE2=Going Back Home (featuring Bobby Rush)
TTITLE3=I Love the Blues
TTITLE4=Hustler Blues (Rap)
TTITLE5=Party
TTITLE6=Gangster of Love
TTITLE7=Hustler Blues (Regular)
TTITLE8=I Love This Woman
TTITLE9=Same Thang
TTITLE10=Crossing Over (Gospel)
EXTD=
EXTT0=
EXTT1=
EXTT2=
EXTT3=
EXTT4=
EXTT5=
EXTT6=
EXTT7=
EXTT8=
EXTT9=
EXTT10=
PLAYORDER=
